<svg xmlns="http://www.w3.org/2000/svg" xmlns:xlink="http://www.w3.org/1999/xlink" width="210" height="160" viewBox="0 0 210 160">
    <defs>
        <path id="a" d="M68 0l10 6v12l-10 6-10-6V6z"/>
        <path id="b" d="M91 18l21 12v24L91 65 70 54V30z"/>
        <path id="c" d="M70.164 74.964L88.91 86.6A15 15 0 0 1 96 99.344V101H38v-1.656A15 15 0 0 1 45.09 86.6l18.746-11.636a6 6 0 0 1 6.328 0z"/>
        <path id="d" d="M67 77c8.837 0 16-7.163 16-16s-7.163-16-16-16-16 7.163-16 16 7.163 16 16 16z"/>
    </defs>
    <g fill="none" fill-rule="evenodd">
        <path stroke="#1284E3" stroke-width="10" d="M83 52.77L55 68.89v32.22l28 16.12 28-16.12V68.89L83 52.77z"/>
        <g transform="translate(50 37)">
            <use fill="#B8C1C8" fill-opacity=".4" xlink:href="#a"/>
            <path stroke="#143048" stroke-opacity=".1" stroke-width="2" d="M68 1.166l-9 5.4v10.868l9 5.4 9-5.4V6.566l-9-5.4z"/>
        </g>
        <g transform="translate(50 37)">
            <use fill="#B8C1C8" fill-opacity=".6" xlink:href="#b"/>
            <path stroke="#143048" stroke-opacity=".1" stroke-width="2" d="M91 19.152L71 30.58v22.815L91 63.87l20-10.476V30.58L91 19.152z"/>
        </g>
        <g transform="translate(50 37)">
            <use fill="#143048" xlink:href="#c"/>
            <path stroke="#143048" stroke-width="10" d="M43.576 96h46.848a10 10 0 0 0-4.15-5.152L67.527 79.212a1 1 0 0 0-1.054 0L47.726 90.848A10 10 0 0 0 43.576 96z"/>
        </g>
        <g transform="translate(50 37)">
            <use fill="#143048" xlink:href="#d"/>
            <path stroke="#143048" stroke-width="10" d="M67 72c6.075 0 11-4.925 11-11s-4.925-11-11-11-11 4.925-11 11 4.925 11 11 11z"/>
        </g>
        <g stroke="#B8C1C8" stroke-linecap="round" stroke-width="3">
            <path d="M67 73.5h25M67 79.5h21M67 91.5h8.5M67 85.5h33"/>
        </g>
    </g>
</svg>
