<svg xmlns="http://www.w3.org/2000/svg" width="20" height="20" viewBox="0 0 20 20">
    <g fill="#1284E3" fill-rule="nonzero">
        <path d="M4 6v1.5c-.312 0-.5.188-.5.5v8c0 .312.188.5.5.5h8c.312 0 .5-.188.5-.5H14c0 1.14-.86 2-2 2H4c-1.14 0-2-.86-2-2V8c0-1.14.86-2 2-2z"/>
        <path d="M16.5 3.5H7.167c-.562 0-.667.105-.667.667v8.666c0 .563.104.667.667.667h8.666c.563 0 .667-.104.667-.667V3.5zm1.5 9.333C18 14.224 17.224 15 15.833 15H7.167C5.776 15 5 14.224 5 12.833V4.167C5 2.777 5.776 2 7.167 2H16.5A1.5 1.5 0 0 1 18 3.5v9.333z"/>
    </g>
</svg>
