<svg xmlns="http://www.w3.org/2000/svg" width="40" height="40" viewBox="0 0 40 40">
    <path fill="#FFF" fill-rule="nonzero" d="M30.367 13.99a11.935 11.935 0 0 0-4.362-4.362c-1.837-1.072-3.842-1.608-6.018-1.608-2.174 0-4.18.536-6.017 1.608a11.934 11.934 0 0 0-4.362 4.362C8.536 15.827 8 17.833 8 20.007c0 2.612.762 4.961 2.287 7.047 1.524 2.087 3.493 3.53 5.907 4.332.281.052.49.015.625-.11a.61.61 0 0 0 .203-.468l-.008-.842c-.006-.531-.008-.994-.008-1.39l-.36.063a4.58 4.58 0 0 1-.865.054 6.6 6.6 0 0 1-1.085-.109 2.424 2.424 0 0 1-1.046-.468 1.98 1.98 0 0 1-.687-.96l-.156-.359a3.9 3.9 0 0 0-.491-.796c-.224-.291-.45-.489-.68-.593l-.109-.078a1.146 1.146 0 0 1-.202-.187.856.856 0 0 1-.14-.219c-.032-.073-.006-.133.077-.18.084-.047.234-.07.453-.07l.312.047c.208.042.465.166.773.375.306.208.559.478.756.811.24.427.528.752.867.976.338.224.679.335 1.022.335.343 0 .64-.026.89-.078.25-.052.483-.13.702-.234.094-.697.349-1.233.765-1.608a10.688 10.688 0 0 1-1.6-.28 6.37 6.37 0 0 1-1.467-.61 4.202 4.202 0 0 1-1.257-1.045c-.333-.417-.606-.963-.819-1.64-.213-.676-.32-1.456-.32-2.34 0-1.26.411-2.331 1.233-3.216-.385-.947-.349-2.008.11-3.184.301-.094.749-.023 1.342.21.593.235 1.027.435 1.303.602.276.166.497.307.663.421.968-.27 1.967-.406 2.997-.406 1.03 0 2.03.136 2.998.406l.593-.374a8.4 8.4 0 0 1 1.435-.687c.552-.208.974-.266 1.265-.172.468 1.176.51 2.237.125 3.184.822.885 1.233 1.957 1.233 3.216 0 .884-.107 1.667-.32 2.349-.213.681-.489 1.227-.827 1.639-.338.41-.76.757-1.264 1.038a6.382 6.382 0 0 1-1.468.608c-.473.125-1.007.22-1.6.282.541.468.812 1.207.812 2.216v3.293c0 .187.065.343.195.468s.336.161.617.11c2.414-.802 4.383-2.246 5.908-4.332 1.524-2.086 2.286-4.435 2.286-7.047 0-2.175-.537-4.18-1.608-6.017z"/>
</svg>
