<?xml version="1.0" encoding="UTF-8" standalone="no"?>
<svg
   xmlns:dc="http://purl.org/dc/elements/1.1/"
   xmlns:cc="http://creativecommons.org/ns#"
   xmlns:rdf="http://www.w3.org/1999/02/22-rdf-syntax-ns#"
   xmlns:svg="http://www.w3.org/2000/svg"
   xmlns="http://www.w3.org/2000/svg"
   xmlns:sodipodi="http://sodipodi.sourceforge.net/DTD/sodipodi-0.dtd"
   xmlns:inkscape="http://www.inkscape.org/namespaces/inkscape"
   version="1.1"
   id="Capa_1"
   x="0px"
   y="0px"
   viewBox="0 0 40 40"
   xml:space="preserve"
   width="40"
   height="40"
   sodipodi:docname="google-groups.svg"
   inkscape:version="0.92.1 r15371"><metadata
     id="metadata17"><rdf:RDF><cc:Work
         rdf:about=""><dc:format>image/svg+xml</dc:format><dc:type
           rdf:resource="http://purl.org/dc/dcmitype/StillImage" /><dc:title></dc:title></cc:Work></rdf:RDF></metadata><defs
     id="defs15" /><sodipodi:namedview
     pagecolor="#ffffff"
     bordercolor="#666666"
     borderopacity="1"
     objecttolerance="10"
     gridtolerance="10"
     guidetolerance="10"
     inkscape:pageopacity="0"
     inkscape:pageshadow="2"
     inkscape:window-width="1201"
     inkscape:window-height="789"
     id="namedview13"
     showgrid="false"
     inkscape:zoom="12.625"
     inkscape:cx="27.871353"
     inkscape:cy="21.023571"
     inkscape:window-x="168"
     inkscape:window-y="5"
     inkscape:window-maximized="0"
     inkscape:current-layer="Capa_1" /><path
     d="M 28.366942,13.620457 H 11.811101 c -0.39884,0 -0.721992,0.323153 -0.721992,0.721901 v 11.74316 c 0,0.39875 0.323152,0.721991 0.721992,0.721991 h 13.087762 l 4.190246,4.558828 v -5.280819 -2.90083 -8.84233 c -8.8e-5,-0.398748 -0.323241,-0.721901 -0.722167,-0.721901 z m -10.643624,2.796484 c 1.044964,0 1.892332,0.846833 1.892332,1.892421 0,1.044878 -0.847368,1.892155 -1.892332,1.892155 -1.045412,0 -1.892332,-0.847277 -1.892332,-1.892155 -9e-5,-1.045588 0.846833,-1.892421 1.892332,-1.892421 z m 3.583069,7.630729 h -0.273375 -6.893297 v -1.102552 c 0,-1.978932 1.604581,-2.616985 3.583603,-2.616985 1.979109,0 3.583158,0.638053 3.583158,2.616985 v 1.102552 z m 2.195609,-5.258459 c 0.720662,0 1.304323,0.58366 1.304323,1.303878 0,0.720128 -0.583661,1.304233 -1.304323,1.304233 -0.719595,0 -1.303789,-0.584105 -1.303789,-1.304233 0,-0.720218 0.584194,-1.303878 1.303789,-1.303878 z m 2.469873,5.258459 h -3.42327 v -1.102552 c 0,-0.507621 -0.07781,-0.94479 -0.206119,-1.321713 0.34569,-0.09707 0.740358,-0.138773 1.159516,-0.138773 1.363948,0 2.469873,0.439299 2.469873,1.803248 z"
     id="path10"
     inkscape:connector-curvature="0"
     style="fill:#ffffff;stroke-width:0.08872939" /></svg>