<?xml version="1.0" encoding="utf-8"?>
<!-- Generator: Adobe Illustrator 20.0.0, SVG Export Plug-In . SVG Version: 6.00 Build 0)  -->
<svg version="1.1" id="Layer_1" xmlns="http://www.w3.org/2000/svg" xmlns:xlink="http://www.w3.org/1999/xlink" x="0px" y="0px"
	 viewBox="0 0 40 40" style="enable-background:new 0 0 40 40;" xml:space="preserve">
<style type="text/css">
	.st0{fill:#FFFFFF;}
</style>
<title>background</title>
<title>Layer 1</title>
<path class="st0" d="M28.9,20.8L28.9,20.8c-0.2-0.7-0.8-1.1-1.5-1.1c-0.2,0-0.3,0-0.5,0.1l-1.8,0.6L24,17c1.7-0.6,1.7-0.6,1.7-0.6
	c0.7-0.2,1.3-1,1.1-1.8l0-0.1c-0.2-0.6-0.8-1-1.5-1c-0.2,0-0.3,0-0.5,0.1L23,14.1l-0.6-1.7c-0.1-0.4-0.4-0.7-0.8-0.9
	c-0.2-0.1-0.5-0.2-0.7-0.2c-0.2,0-0.3,0-0.5,0.1c-0.8,0.3-1.2,1.1-1,1.9l0,0.1l0.6,1.7l-3.4,1.1l-0.6-1.7c-0.2-0.6-0.8-1.1-1.5-1.1
	c-0.2,0-0.3,0-0.5,0.1c0,0,0,0,0,0c-0.8,0.3-1.3,1.2-1,2l0.6,1.7L12,17.8c-0.8,0.3-1.2,1.1-1,1.9c0,0,0,0,0,0.1c0.2,0.6,0.8,1,1.5,1
	c0.2,0,0.4,0,0.5-0.1c0.6-0.2,1.2-0.4,1.7-0.6l1.1,3.4l-1.7,0.6c-0.8,0.3-1.2,1.1-1,1.9c0,0,0,0,0,0.1c0.2,0.6,0.8,1,1.5,1v0
	c0.2,0,0.4,0,0.5-0.1l1.7-0.6l0.6,1.7c0.2,0.6,0.8,1.1,1.5,1.1v0h0c0.2,0,0.3,0,0.5-0.1c0,0,0,0,0,0c0.8-0.3,1.3-1.2,1-2l-0.6-1.8
	l3.3-1.1l0.6,1.8c0.2,0.6,0.8,1.1,1.5,1.1l0,0c0.2,0,0.3,0,0.5-0.1c0.8-0.3,1.2-1.1,1-1.9l0,0l-0.6-1.8l1.9-0.6c0,0,0.6-0.2,0.8-0.5
	C28.9,21.7,29,21.2,28.9,20.8z M18.8,22.5l-1.1-3.4c1.3-0.5,2.4-0.8,3.3-1.1l1.1,3.4L18.8,22.5z"/>
</svg>
