<svg xmlns="http://www.w3.org/2000/svg" width="40" height="40" viewBox="0 0 40 40">
    <path fill="#FFF" fill-rule="nonzero" d="M28.001 15.134a6.965 6.965 0 0 1-2.002.55 3.502 3.502 0 0 0 1.533-1.929c-.676.4-1.422.69-2.216.847a3.488 3.488 0 0 0-5.943 3.18 9.902 9.902 0 0 1-7.188-3.645 3.461 3.461 0 0 0-.472 1.753c0 1.21.616 2.278 1.55 2.903a3.488 3.488 0 0 1-1.579-.438v.044a3.491 3.491 0 0 0 2.797 3.42c-.292.078-.6.122-.919.122-.225 0-.443-.023-.656-.065a3.49 3.49 0 0 0 3.257 2.422 6.997 6.997 0 0 1-4.331 1.49c-.282 0-.559-.016-.832-.047a9.858 9.858 0 0 0 5.346 1.569c6.416 0 9.923-5.314 9.923-9.923l-.012-.451a6.965 6.965 0 0 0 1.744-1.802z"/>
</svg>
