<svg xmlns="http://www.w3.org/2000/svg" width="40" height="40" viewBox="0 0 40 40">
    <g fill="none" fill-rule="evenodd">
        <path fill="#FFF" fill-rule="nonzero" d="M28.1 14.975c.528.561.714 1.832.714 1.832S29 18.314 29 19.82v1.39c0 1.476-.186 2.983-.186 2.983s-.186 1.27-.714 1.832c-.683.71-1.459.739-1.8.768C23.786 27 20 27 20 27s-4.686-.03-6.114-.177c-.403-.089-1.303-.06-1.986-.798-.528-.561-.714-1.832-.714-1.832S11 22.716 11 21.21V19.82c0-1.506.186-3.013.186-3.013s.155-1.27.714-1.832c.683-.71 1.459-.739 1.8-.768C16.214 14.03 20 14 20 14s3.786.03 6.3.207c.341.03 1.117.03 1.8.768zM18 17.5v6l5.5-3-5.5-3z"/>
    </g>
</svg>
