<?xml version="1.0" encoding="utf-8"?><svg width="420" height="320" viewBox="0 0 420 320" xmlns="http://www.w3.org/2000/svg" xmlns:xlink="http://www.w3.org/1999/xlink"><svg width="210" height="160" viewBox="0 0 210 160" id="admin-console" xmlns="http://www.w3.org/2000/svg"><defs><path id="aa" d="M68 0l10 6v12l-10 6-10-6V6z"/><path id="ab" d="M91 18l21 12v24L91 65 70 54V30z"/><path id="ac" d="M70.164 74.964L88.91 86.6A15 15 0 0 1 96 99.344V101H38v-1.656A15 15 0 0 1 45.09 86.6l18.746-11.636a6 6 0 0 1 6.328 0z"/><path id="ad" d="M67 77c8.837 0 16-7.163 16-16s-7.163-16-16-16-16 7.163-16 16 7.163 16 16 16z"/></defs><g fill="none" fill-rule="evenodd"><path stroke="#1284E3" stroke-width="10" d="M83 52.77L55 68.89v32.22l28 16.12 28-16.12V68.89L83 52.77z"/><g transform="translate(50 37)"><use fill="#B8C1C8" fill-opacity=".4" xlink:href="#aa"/><path stroke="#143048" stroke-opacity=".1" stroke-width="2" d="M68 1.166l-9 5.4v10.868l9 5.4 9-5.4V6.566l-9-5.4z"/></g><g transform="translate(50 37)"><use fill="#B8C1C8" fill-opacity=".6" xlink:href="#ab"/><path stroke="#143048" stroke-opacity=".1" stroke-width="2" d="M91 19.152L71 30.58v22.815L91 63.87l20-10.476V30.58L91 19.152z"/></g><g transform="translate(50 37)"><use fill="#143048" xlink:href="#ac"/><path stroke="#143048" stroke-width="10" d="M43.576 96h46.848a10 10 0 0 0-4.15-5.152L67.527 79.212a1 1 0 0 0-1.054 0L47.726 90.848A10 10 0 0 0 43.576 96z"/></g><g transform="translate(50 37)"><use fill="#143048" xlink:href="#ad"/><path stroke="#143048" stroke-width="10" d="M67 72c6.075 0 11-4.925 11-11s-4.925-11-11-11-11 4.925-11 11 4.925 11 11 11z"/></g><path d="M67 73.5h25m-25 6h21m-21 12h8.5m-8.5-6h33" stroke="#B8C1C8" stroke-linecap="round" stroke-width="3"/></g></svg><svg width="210" height="160" viewBox="0 0 210 160" id="api-console" y="160" xmlns="http://www.w3.org/2000/svg"><defs><path id="ba" d="M55.963 30.829l24 13.856v27.713l-24 13.856-24-13.856V44.685z"/><path id="bb" d="M17 0l16 9.243v19.514L17 38 0 28.757V9.243z"/><path id="bc" d="M102 69l15 9v17l-15 9-15-9V78z"/><path id="bd" d="M14 73l10 6v11l-10 6-10-6V79z"/><path id="be" d="M56 6l9 5v10l-9 5-9-5V11z"/><path id="bf" d="M86 12l8 5v10l-8 5-9-5V17z"/><path id="bg" d="M98 38l6 4v6l-6 4-6-3v-7z"/></defs><g fill="none" fill-rule="evenodd"><path stroke="#143048" stroke-linecap="square" d="M61.172 124.798l41.557-26.465m.001 0l42.745-13.457M103 98l47 28m-47.5-28V53m.23 45.333l-39.975-39.84m39.975 39.84l29.288-36.413"/><g transform="translate(47 40)"><use fill="#FFF" xlink:href="#ba"/><path stroke="#1284E3" stroke-width="9" d="M55.963 36.025l-19.5 11.258V69.8l19.5 11.258 19.5-11.258V47.283l-19.5-11.258z"/></g><g transform="translate(47 40)"><use fill="#D4DADE" xlink:href="#bb"/><path stroke="#143048" stroke-opacity=".1" stroke-width="2" d="M16.985 1.146L1 9.838v18.324l15.985 8.692L32 28.18V9.82L16.985 1.146z"/></g><g transform="translate(47 40)"><use fill="#D4DADE" xlink:href="#bc"/><path stroke="#143048" stroke-opacity=".1" stroke-width="2" d="M102 70.166l-14 8.4v15.868l14 8.4 14-8.4V78.566l-14-8.4z"/></g><g transform="translate(47 40)"><use fill="#B8C1C8" xlink:href="#bd"/><path stroke="#143048" stroke-opacity=".1" stroke-width="2" d="M14 74.166l-9 5.4v9.868l9 5.4 9-5.4v-9.868l-9-5.4z"/></g><g transform="translate(47 40)"><use fill="#B8C1C8" xlink:href="#be"/><path stroke="#143048" stroke-opacity=".1" stroke-width="2" d="M56 7.144l-8 4.444v8.824l8 4.444 8-4.444v-8.824l-8-4.444z"/></g><g transform="translate(47 40)"><use fill="#D4DADE" xlink:href="#bf"/><path stroke="#143048" stroke-opacity=".1" stroke-width="2" d="M85.97 13.16L78 17.589v8.824l7.97 4.427L93 26.446v-8.892l-7.03-4.393z"/></g><g transform="translate(47 40)"><use fill="#B8C1C8" xlink:href="#bg"/><path stroke="#143048" stroke-opacity=".1" stroke-width="2" d="M98 39.202l-5 3.333v5.847l4.928 2.464L103 47.465v-4.93l-5-3.333z"/></g><path fill="#143048" d="M97.3 94.212h1.199l3.355 7.788h-1.584l-.726-1.782h-3.377L95.463 102h-1.551l3.388-7.788zm1.76 4.818l-1.199-3.168-1.221 3.168h2.42zm3.564-4.818h2.541c.447 0 .85.04 1.21.121.36.08.667.213.924.396.257.183.455.418.594.704.14.286.209.63.209 1.034 0 .433-.08.796-.242 1.089-.161.293-.38.53-.654.71a2.87 2.87 0 0 1-.963.39c-.367.08-.755.121-1.166.121h-1.067V102h-1.386v-7.788zm2.354 3.399c.227 0 .444-.016.649-.05.205-.033.389-.091.55-.176.161-.084.29-.2.385-.346.095-.147.143-.337.143-.572 0-.227-.048-.412-.143-.555a.988.988 0 0 0-.38-.336 1.625 1.625 0 0 0-.538-.16 4.92 4.92 0 0 0-.622-.038h-1.012v2.233h.968zm4.356-3.399h1.386V102h-1.386v-7.788z"/></g></svg><svg width="13" height="13" viewBox="0 0 13 13" id="close" x="370" y="200" xmlns="http://www.w3.org/2000/svg"><g fill="none" fill-rule="evenodd" stroke="#B8C1C8"><rect width="12" height="12" x=".5" y=".5" rx="2"/><path d="M4 6.5h5"/></g></svg><svg width="20" height="20" viewBox="0 0 20 20" id="copy" x="330" y="200" xmlns="http://www.w3.org/2000/svg"><g fill="#1284E3"><path d="M4 6v1.5c-.312 0-.5.188-.5.5v8c0 .312.188.5.5.5h8c.312 0 .5-.188.5-.5H14c0 1.14-.86 2-2 2H4c-1.14 0-2-.86-2-2V8c0-1.14.86-2 2-2z"/><path d="M16.5 3.5H7.167c-.562 0-.667.105-.667.667v8.666c0 .563.104.667.667.667h8.666c.563 0 .667-.104.667-.667V3.5zm1.5 9.333C18 14.224 17.224 15 15.833 15H7.167C5.776 15 5 14.224 5 12.833V4.167C5 2.777 5.776 2 7.167 2H16.5A1.5 1.5 0 0 1 18 3.5v9.333z"/></g></svg><svg width="210" height="160" viewBox="0 0 210 160" id="dashboard" x="210" xmlns="http://www.w3.org/2000/svg"><defs><path id="ea" d="M0 33V11L18 0l19 11v22L18 44z"/><circle id="eb" cx="19" cy="23" r="2"/><path id="ec" d="M0 26.765V8.235L15 0l15 8.235v16.47L15 35z"/></defs><g fill="none" fill-rule="evenodd"><g transform="translate(43 88)"><use fill="#B8C1C8" xlink:href="#ea"/><path stroke="#143048" stroke-opacity=".1" stroke-width="2" d="M1 32.44l17.014 10.396L36 32.423V11.577L18.014 1.164 1 11.56v20.878z"/></g><path fill="#143048" d="M60.108 111l-3.074-7.85a.2.2 0 0 1 .354-.182L62 110.034l-1.892.966z"/><path stroke="#FFF" stroke-linecap="round" stroke-width="2" d="M51 103l3.209-1.802a15 15 0 0 1 14.886.112L72 103"/><g transform="translate(43 88)"><use fill="#143048" xlink:href="#eb"/><circle cx="19" cy="23" r="1" stroke="#143048" stroke-width="2"/></g><g transform="translate(67 59)" opacity=".5"><use fill="#B8C1C8" xlink:href="#ec"/><path stroke="#143048" stroke-opacity=".1" stroke-width="2" d="M1 26.173l13.942 7.654L29 24.18V8.827L15 1.141 1 8.827v17.346z"/></g><g transform="translate(85 57)"><path fill="#143048" d="M37 45.904l9.783-15.601a.665.665 0 0 1 .813-.263.546.546 0 0 1 .297.721L40.5 48 37 45.904z"/><path stroke="#B8C1C8" stroke-linecap="round" stroke-width="4" d="M16 32l5.76-3.423a31 31 0 0 1 32.084.25L59 32"/><circle cx="38.5" cy="47.5" r="3.5" fill="#143048"/><path stroke="#1284E3" stroke-width="10" d="M18.567 75h38.821L71 64.307V25.113L37.987 5.793 5 25.114v39.573L18.567 75z"/></g></g></svg><svg width="40" height="40" viewBox="0 0 40 40" id="email" x="290" y="160" xmlns="http://www.w3.org/2000/svg"><path fill="#FFF" fill-rule="evenodd" d="M11 14h18v13H11V14zm11 8l7 5v-1.5L23 21l6-5v-1.5L20 22l-9-7.5V16l6 5-6 4.5V27l7-5 2 1.5 2-1.5z"/></svg><svg width="40" height="40" viewBox="0 0 40 40" id="facebook" x="330" y="160" xmlns="http://www.w3.org/2000/svg"><path fill="#FFF" fill-rule="nonzero" d="M17 13.5V17l-2-.048v4.04L17 21v10h4V21h3.5l.5-4h-4v-3c0-.413.464-1 1-1h3V9h-3.484C17.5 9 17 12.896 17 13.5z"/></svg><svg width="40" height="40" viewBox="0 0 40 40" id="github" x="290" y="200" xmlns="http://www.w3.org/2000/svg"><path fill="#FFF" d="M30.367 13.99a11.935 11.935 0 0 0-4.362-4.362c-1.837-1.072-3.842-1.608-6.018-1.608-2.174 0-4.18.536-6.017 1.608a11.934 11.934 0 0 0-4.362 4.362C8.536 15.827 8 17.833 8 20.007c0 2.612.762 4.961 2.287 7.047 1.524 2.087 3.493 3.53 5.907 4.332.281.052.49.015.625-.11a.61.61 0 0 0 .203-.468l-.008-.842a122.66 122.66 0 0 1-.008-1.39l-.36.063a4.58 4.58 0 0 1-.865.054 6.6 6.6 0 0 1-1.085-.109 2.424 2.424 0 0 1-1.046-.468 1.98 1.98 0 0 1-.687-.96l-.156-.359a3.9 3.9 0 0 0-.491-.796c-.224-.291-.45-.489-.68-.593l-.109-.078a1.146 1.146 0 0 1-.202-.187.856.856 0 0 1-.14-.219c-.032-.073-.006-.133.077-.18.084-.047.234-.07.453-.07l.312.047c.208.042.465.166.773.375.306.208.559.478.756.811.24.427.528.752.867.976.338.224.679.335 1.022.335.343 0 .64-.026.89-.078.25-.052.483-.13.702-.234.094-.697.349-1.233.765-1.608a10.688 10.688 0 0 1-1.6-.28 6.37 6.37 0 0 1-1.467-.61 4.202 4.202 0 0 1-1.257-1.045c-.333-.417-.606-.963-.819-1.64-.213-.676-.32-1.456-.32-2.34 0-1.26.411-2.331 1.233-3.216-.385-.947-.349-2.008.11-3.184.301-.094.749-.023 1.342.21.593.235 1.027.435 1.303.602.276.166.497.307.663.421.968-.27 1.967-.406 2.997-.406 1.03 0 2.03.136 2.998.406l.593-.374a8.4 8.4 0 0 1 1.435-.687c.552-.208.974-.266 1.265-.172.468 1.176.51 2.237.125 3.184.822.885 1.233 1.957 1.233 3.216 0 .884-.107 1.667-.32 2.349-.213.681-.489 1.227-.827 1.639-.338.41-.76.757-1.264 1.038a6.382 6.382 0 0 1-1.468.608c-.473.125-1.007.22-1.6.282.541.468.812 1.207.812 2.216v3.293c0 .187.065.343.195.468s.336.161.617.11c2.414-.802 4.383-2.246 5.908-4.332 1.524-2.086 2.286-4.435 2.286-7.047 0-2.175-.537-4.18-1.608-6.017z"/></svg><svg width="40" height="40" viewBox="0 0 40 40" id="google" x="210" y="200" xmlns="http://www.w3.org/2000/svg"><defs><path id="ia" d="M19.483 8.333H10v3.334h5c-.5 2.454-2.227 4.242-5 4.242A5.897 5.897 0 0 1 4.09 10 5.897 5.897 0 0 1 10 4.09c1.41 0 2.682.5 3.682 1.32L16.59 2.5C14.818.955 12.545 0 10 0 4.455 0 0 4.455 0 10s4.455 10 10 10c5 0 9.483-3.636 9.483-10V8.333z"/></defs><use fill="#FFF" fill-rule="evenodd" transform="translate(10 10)" xlink:href="#ia"/></svg><svg width="40" height="40" viewBox="0 0 40 40" id="google-plus" x="250" y="200" xmlns="http://www.w3.org/2000/svg"><path d="M18 20v2h3.5c-.62 1.971-2.536 3-4.711 3-2.684 0-4.86-2.02-4.86-4.704a4.859 4.859 0 0 1 4.86-4.859c1.35 0 2.58.673 3.461 1.563l1.639-1.91A7.289 7.289 0 0 0 9.5 20.296c0 4.025 3.225 7.204 7.25 7.204 3.526 0 6.575-2.173 7.25-5.5v-2h-6zm11-1h-2v-2h-1v2h-2v1h2v2h1v-2h2z" fill="#FFF"/></svg><svg width="40" height="40" viewBox="0 0 40 40" id="linkedin" x="210" y="160" xmlns="http://www.w3.org/2000/svg"><path fill="#FFF" d="M29 21.5V28h-4v-6c.07-1.521-.499-2.552-2-2.5-1.007-.052-1.654.643-2 1.5-.042.055-.068.389 0 .5V28h-4s.053-10.181 0-11h4v1.5c.454-.908 1.386-2 3.5-2 2.56 0 4.5 1.606 4.5 5zM13 11c-1.25 0-2 .864-2 2 0 1.11.87 2 2 2 1 0 2-.89 2-2-.026-1.136-.75-2-2-2zm-2 17h4V16.5h-4V28z"/></svg><svg width="20" height="20" viewBox="0 0 20 20" id="logout" x="350" y="200" xmlns="http://www.w3.org/2000/svg"><path d="M14.25 15.167V2.5a.75.75 0 0 0-.75-.75H4.167c-.926 0-1.417.642-1.417 2.083v11.334c0 1.441.49 2.083 1.417 2.083h8.666c.926 0 1.417-.642 1.417-2.083zM9 9.5h8M15 7l2.5 2.5L15 12" fill="none" fill-rule="evenodd" stroke="#1284E3" stroke-width="1.5"/></svg><svg width="40" height="40" viewBox="0 0 40 40" id="logout-white" x="370" y="160" xmlns="http://www.w3.org/2000/svg"><path d="M24.25 26.167V13.5a.75.75 0 0 0-.75-.75h-9.333c-.926 0-1.417.642-1.417 2.083v11.334c0 1.441.49 2.083 1.417 2.083h8.666c.926 0 1.417-.642 1.417-2.083zM19 20.5h8M25 18l2.5 2.5L25 23" fill="none" fill-rule="evenodd" stroke="#FFF" stroke-width="1.5"/></svg><svg width="13" height="13" viewBox="0 0 13 13" id="open" x="383" y="200" xmlns="http://www.w3.org/2000/svg"><g fill="none" fill-rule="evenodd" stroke="#B8C1C8"><rect width="12" height="12" x=".5" y=".5" rx="2"/><path d="M4 6.5h5M6.5 9V4"/></g></svg><svg width="40" height="40" viewBox="0 0 40 40" id="twitter" x="250" y="160" xmlns="http://www.w3.org/2000/svg"><path fill="#FFF" d="M28.001 15.134a6.965 6.965 0 0 1-2.002.55 3.502 3.502 0 0 0 1.533-1.929c-.676.4-1.422.69-2.216.847a3.488 3.488 0 0 0-5.943 3.18 9.902 9.902 0 0 1-7.188-3.645 3.461 3.461 0 0 0-.472 1.753c0 1.21.616 2.278 1.55 2.903a3.488 3.488 0 0 1-1.579-.438v.044a3.491 3.491 0 0 0 2.797 3.42c-.292.078-.6.122-.919.122-.225 0-.443-.023-.656-.065a3.49 3.49 0 0 0 3.257 2.422 6.997 6.997 0 0 1-4.331 1.49c-.282 0-.559-.016-.832-.047a9.858 9.858 0 0 0 5.346 1.569c6.416 0 9.923-5.314 9.923-9.923l-.012-.451a6.965 6.965 0 0 0 1.744-1.802z"/></svg></svg>